<svg xmlns="http://www.w3.org/2000/svg" xmlns:svg="http://www.w3.org/2000/svg" id="svg2" width="16" height="16" version="1.1"><defs id="defs4"><linearGradient id="linearGradient3946"><stop id="stop3948" offset="0" style="stop-color:#000;stop-opacity:.74698794"/><stop id="stop3950" offset="1" style="stop-color:#000;stop-opacity:.02409638"/></linearGradient><linearGradient id="linearGradient3830-9"><stop style="stop-color:#000;stop-opacity:.74698794" id="stop3832-7" offset="0"/><stop style="stop-color:#000;stop-opacity:.02409638" id="stop3834-5" offset="1"/></linearGradient><linearGradient id="linearGradient3984"><stop style="stop-color:#f4deba;stop-opacity:1" id="stop3986" offset="0"/><stop style="stop-color:#de9625;stop-opacity:0" id="stop3988" offset="1"/></linearGradient></defs><metadata id="metadata7"/><g id="layer1" transform="translate(-31.97559,-220.36218)"><path style="color:#000;font-style:normal;font-variant:normal;font-weight:400;font-stretch:normal;font-size:medium;line-height:normal;font-family:sans-serif;text-indent:0;text-align:start;text-decoration:none;text-decoration-line:none;text-decoration-style:solid;text-decoration-color:#000;letter-spacing:normal;word-spacing:normal;text-transform:none;direction:ltr;block-progression:tb;writing-mode:lr-tb;baseline-shift:baseline;text-anchor:start;white-space:normal;clip-rule:nonzero;display:inline;overflow:visible;visibility:visible;opacity:1;isolation:auto;mix-blend-mode:normal;color-interpolation:sRGB;color-interpolation-filters:linearRGB;solid-color:#000;solid-opacity:1;fill:#bebebe;fill-opacity:1;fill-rule:nonzero;stroke:none;stroke-width:.99999988;stroke-linecap:round;stroke-linejoin:round;stroke-miterlimit:4;stroke-dasharray:none;stroke-dashoffset:0;stroke-opacity:1;color-rendering:auto;image-rendering:auto;shape-rendering:auto;text-rendering:auto;enable-background:accumulate" id="rect6556" d="m 32.482422,220.36133 c -0.116836,0.003 -0.228788,0.0476 -0.316406,0.125 -0.107133,0.0952 -0.168295,0.23171 -0.167969,0.375 -2.48e-4,0.009 -2.48e-4,0.0182 0,0.0273 l -0.02246,9.97266 c 2.8e-5,0.27613 0.246326,0.49997 0.522457,0.5 L 36,231.3622 l 0,-7 9,0 -0.0078,-3.50088 c -2.8e-5,-0.27613 -0.223869,-0.49997 -0.5,-0.5 l -11.994141,0 -0.01563,0 z m 0.515625,1 10.977543,0 0,2.19726 -8.483402,0.0176 c -0.276131,0.001 -0.499098,0.22582 -0.498047,0.50195 l 0.0098,6.28321 -2.028351,0 0,-9 z"/><path style="display:inline;fill:#bebebe;fill-opacity:1;fill-rule:nonzero;stroke:none;stroke-width:1;stroke-linecap:round;stroke-linejoin:miter;stroke-miterlimit:4;stroke-dasharray:none;stroke-opacity:1" id="rect6558" d="m 34,222.3622 -0.02441,7 1.525751,-3.9e-4 -0.0078,-5.28516 7.501954,-0.0156 0,-1.70508 c -3.047428,-0.004 -5.972729,0.022 -9.019905,0.006 z"/><path style="color:#000;font-style:normal;font-variant:normal;font-weight:400;font-stretch:normal;font-size:medium;line-height:normal;font-family:sans-serif;text-indent:0;text-align:start;text-decoration:none;text-decoration-line:none;text-decoration-style:solid;text-decoration-color:#000;letter-spacing:normal;word-spacing:normal;text-transform:none;direction:ltr;block-progression:tb;writing-mode:lr-tb;baseline-shift:baseline;text-anchor:start;white-space:normal;clip-rule:nonzero;display:inline;overflow:visible;visibility:visible;opacity:1;isolation:auto;mix-blend-mode:normal;color-interpolation:sRGB;color-interpolation-filters:linearRGB;solid-color:#000;solid-opacity:1;fill:#bebebe;fill-opacity:1;fill-rule:nonzero;stroke:none;stroke-width:1.08107233;stroke-linecap:round;stroke-linejoin:round;stroke-miterlimit:4;stroke-dasharray:none;stroke-dashoffset:0;stroke-opacity:1;color-rendering:auto;image-rendering:auto;shape-rendering:auto;text-rendering:auto;enable-background:accumulate" id="rect6630" d="m 35.492509,223.53781 c -0.298134,4.2e-4 -0.516531,0.24213 -0.516919,0.54026 l 0,11.74413 c 2.18e-4,0.29889 0.237317,0.54071 0.536205,0.53982 l 11.902315,1.6e-4 c 0.298887,-4.2e-4 0.562158,-0.26956 0.56148,-0.56845 l 0,-11.74413 c -0.0013,-0.29813 -0.282633,-0.53877 -0.580764,-0.53788 z m 0.483081,0.82439 11,0 0.02441,11 -11,0 z"/><path style="display:inline;fill:#bebebe;fill-opacity:1;fill-rule:nonzero;stroke:none" id="rect6632" d="m 36.872205,225.47201 9.000028,0.0268 -0.0032,6.99999 -9.000028,-0.0268 z" transform="matrix(0.99999557,-0.00297742,4.5925146e-4,0.99999989,0,0)"/><path style="color:#000;font-style:normal;font-variant:normal;font-weight:400;font-stretch:normal;font-size:medium;line-height:normal;font-family:sans-serif;text-indent:0;text-align:start;text-decoration:none;text-decoration-line:none;text-decoration-style:solid;text-decoration-color:#000;letter-spacing:normal;word-spacing:normal;text-transform:none;direction:ltr;block-progression:tb;writing-mode:lr-tb;baseline-shift:baseline;text-anchor:start;white-space:normal;clip-rule:nonzero;display:inline;overflow:visible;visibility:visible;opacity:1;isolation:auto;mix-blend-mode:normal;color-interpolation:sRGB;color-interpolation-filters:linearRGB;solid-color:#000;solid-opacity:1;fill:#bebebe;fill-opacity:1;fill-rule:nonzero;stroke:none;stroke-width:1px;stroke-linecap:square;stroke-linejoin:miter;stroke-miterlimit:4;stroke-dasharray:none;stroke-dashoffset:0;stroke-opacity:1;color-rendering:auto;image-rendering:auto;shape-rendering:auto;text-rendering:auto;enable-background:accumulate" id="path5466" d="m 45.97559,233.3622 -9,0 0,1 9,0 z"/></g></svg>