<svg xmlns="http://www.w3.org/2000/svg" xmlns:svg="http://www.w3.org/2000/svg" id="svg2" width="16" height="16" version="1.1"><defs id="defs4"><linearGradient id="linearGradient3946"><stop id="stop3948" offset="0" style="stop-color:#000;stop-opacity:.74698794"/><stop id="stop3950" offset="1" style="stop-color:#000;stop-opacity:.02409638"/></linearGradient><linearGradient id="linearGradient3830-9"><stop style="stop-color:#000;stop-opacity:.74698794" id="stop3832-7" offset="0"/><stop style="stop-color:#000;stop-opacity:.02409638" id="stop3834-5" offset="1"/></linearGradient><linearGradient id="linearGradient3984"><stop style="stop-color:#f4deba;stop-opacity:1" id="stop3986" offset="0"/><stop style="stop-color:#de9625;stop-opacity:0" id="stop3988" offset="1"/></linearGradient></defs><metadata id="metadata7"/><g id="layer1" transform="translate(-31.97559,-220.36218)"><path style="font-size:medium;font-style:normal;font-variant:normal;font-weight:400;font-stretch:normal;text-indent:0;text-align:start;text-decoration:none;line-height:normal;letter-spacing:normal;word-spacing:normal;text-transform:none;direction:ltr;block-progression:tb;writing-mode:lr-tb;text-anchor:start;baseline-shift:baseline;color:#000;fill:#bebebe;fill-opacity:1;stroke:none;stroke-width:2;marker:none;visibility:visible;display:inline;overflow:visible;enable-background:accumulate;font-family:Sans;-inkscape-font-specification:Sans" id="path3865" d="m 40.00684,221.36218 c -3.854149,0 -7,3.14585 -7,7 0,3.85415 3.145851,7 7,7 3.854149,0 7,-3.14585 7,-7 0,-3.85415 -3.145851,-7 -7,-7 z m 0,2 c 2.773268,0 5,2.22673 5,5 0,2.77327 -2.226732,5 -5,5 -2.773268,0 -5,-2.22673 -5,-5 0,-2.77327 2.226732,-5 5,-5 z"/><path style="font-size:medium;font-style:normal;font-variant:normal;font-weight:400;font-stretch:normal;text-indent:0;text-align:start;text-decoration:none;line-height:normal;letter-spacing:normal;word-spacing:normal;text-transform:none;direction:ltr;block-progression:tb;writing-mode:lr-tb;text-anchor:start;baseline-shift:baseline;opacity:1;color:#000;fill:#bebebe;fill-opacity:1;stroke:none;stroke-width:1;marker:none;visibility:visible;display:inline;overflow:visible;enable-background:accumulate;font-family:Sans;-inkscape-font-specification:Sans" d="m 40.96875,224.84375 a 0.50005,0.50005 0 0 0 -0.4375,0.375 l -1,3 a 0.50005,0.50005 0 0 0 0.3125,0.625 l 3,1 a 0.50895305,0.50895305 0 1 0 0.3125,-0.96875 l -2.53125,-0.84375 0.84375,-2.5 a 0.50005,0.50005 0 0 0 -0.5,-0.6875 z"/></g></svg>