<svg xmlns="http://www.w3.org/2000/svg" xmlns:svg="http://www.w3.org/2000/svg" id="svg2" width="16" height="16" version="1.1"><defs id="defs4"><linearGradient id="linearGradient3946"><stop id="stop3948" offset="0" style="stop-color:#000;stop-opacity:.74698794"/><stop id="stop3950" offset="1" style="stop-color:#000;stop-opacity:.02409638"/></linearGradient><linearGradient id="linearGradient3830-9"><stop style="stop-color:#000;stop-opacity:.74698794" id="stop3832-7" offset="0"/><stop style="stop-color:#000;stop-opacity:.02409638" id="stop3834-5" offset="1"/></linearGradient><linearGradient id="linearGradient3984"><stop style="stop-color:#f4deba;stop-opacity:1" id="stop3986" offset="0"/><stop style="stop-color:#de9625;stop-opacity:0" id="stop3988" offset="1"/></linearGradient></defs><metadata id="metadata7"/><g id="layer1" transform="translate(-31.97559,-220.36218)"><path style="opacity:.8;fill:#bebebe;fill-opacity:1;stroke:none;stroke-width:26.45669365;stroke-linecap:round;stroke-linejoin:miter;stroke-miterlimit:4;stroke-dasharray:none;stroke-dashoffset:0;stroke-opacity:1" id="path4865" d="M 8 0 L 8 5 A 3 3 0 0 1 8.0234375 5 A 3 3 0 0 1 11.023438 8 L 16 8 A 8 8 0 0 0 8 0 z" transform="translate(31.97559,220.36218)"/><path style="opacity:.4;fill:#bebebe;fill-opacity:1;stroke:none;stroke-width:26.45669365;stroke-linecap:round;stroke-linejoin:miter;stroke-miterlimit:4;stroke-dasharray:none;stroke-dashoffset:0;stroke-opacity:1" id="path4876" d="M 8 0 A 8 8 0 0 0 0 8 L 5.0234375 8 A 3 3 0 0 1 8 5 L 8 0 z" transform="translate(31.97559,220.36218)"/><path style="opacity:.2;fill:#bebebe;fill-opacity:1;stroke:none;stroke-width:26.45669365;stroke-linecap:round;stroke-linejoin:miter;stroke-miterlimit:4;stroke-dasharray:none;stroke-dashoffset:0;stroke-opacity:1" id="path4878" d="M 0 8 A 8 8 0 0 0 8 16 L 8 10.998047 A 3 3 0 0 1 5.0234375 8 L 0 8 z" transform="translate(31.97559,220.36218)"/><path style="opacity:.6;fill:#bebebe;fill-opacity:1;stroke:none;stroke-width:26.45669365;stroke-linecap:round;stroke-linejoin:miter;stroke-miterlimit:4;stroke-dasharray:none;stroke-dashoffset:0;stroke-opacity:1" id="path4880" d="M 11.023438 8 A 3 3 0 0 1 8.0234375 11 A 3 3 0 0 1 8 10.998047 L 8 16 A 8 8 0 0 0 16 8 L 11.023438 8 z" transform="translate(31.97559,220.36218)"/><circle style="opacity:1;fill:none;fill-opacity:1;stroke:#bebebe;stroke-width:1;stroke-linecap:round;stroke-linejoin:miter;stroke-miterlimit:4;stroke-dasharray:none;stroke-dashoffset:0;stroke-opacity:1" id="path4894" cx="40" cy="228.362" r="7.515"/><circle style="opacity:1;fill:none;fill-opacity:1;stroke:none;stroke-width:1;stroke-linecap:round;stroke-linejoin:miter;stroke-miterlimit:4;stroke-dasharray:none;stroke-dashoffset:0;stroke-opacity:1" id="path4896" cx="40" cy="228.362" r="4"/><circle style="opacity:1;fill:none;fill-opacity:1;stroke:#bebebe;stroke-width:1;stroke-linecap:round;stroke-linejoin:miter;stroke-miterlimit:4;stroke-dasharray:none;stroke-dashoffset:0;stroke-opacity:1" id="path4914" cx="40" cy="228.362" r="3"/></g></svg>