<svg xmlns="http://www.w3.org/2000/svg" xmlns:svg="http://www.w3.org/2000/svg" id="svg2" width="16" height="16" shape-rendering="crispEdges" version="1.1"><defs id="defs4"><marker id="DiamondS" orient="auto" refX="0" refY="0" style="overflow:visible"><path id="path8477" d="M 0,-7.0710768 L -7.0710894,0 L 0,7.0710589 L 7.0710462,0 L 0,-7.0710768 z" transform="scale(0.2)" style="fill-rule:evenodd;stroke:#000;stroke-width:1pt"/></marker><marker id="Arrow2Send" orient="auto" refX="0" refY="0" style="overflow:visible"><path id="path8425" d="M 8.7185878,4.0337352 L -2.2072895,0.016013256 L 8.7185884,-4.0017078 C 6.9730900,-1.6296469 6.9831476,1.6157441 8.7185878,4.0337352 z" transform="scale(0.3) rotate(180) translate(-2.3,0)" style="fill-rule:evenodd;stroke-width:.625;stroke-linejoin:round"/></marker><marker id="Arrow1Lend" orient="auto" refX="0" refY="0" style="overflow:visible"><path id="path8395" d="M 0.0,0.0 L 5.0,-5.0 L -12.5,0.0 L 5.0,5.0 L 0.0,0.0 z" transform="scale(0.8) rotate(180) translate(12.5,0)" style="fill-rule:evenodd;stroke:#000;stroke-width:1pt"/></marker><linearGradient id="linearGradient3946"><stop id="stop3948" offset="0" style="stop-color:#000;stop-opacity:.74698794"/><stop id="stop3950" offset="1" style="stop-color:#000;stop-opacity:.02409638"/></linearGradient><linearGradient id="linearGradient3830-9"><stop style="stop-color:#000;stop-opacity:.74698794" id="stop3832-7" offset="0"/><stop style="stop-color:#000;stop-opacity:.02409638" id="stop3834-5" offset="1"/></linearGradient><linearGradient id="linearGradient3984"><stop style="stop-color:#f4deba;stop-opacity:1" id="stop3986" offset="0"/><stop style="stop-color:#de9625;stop-opacity:0" id="stop3988" offset="1"/></linearGradient></defs><metadata id="metadata7"/><g id="layer1" transform="translate(-31.97559,-220.36218)"><path style="fill:#bebebe;fill-opacity:1;stroke:none" id="path3789" d="M 0.03125 0 L 0.03125 16 L 16.03125 16 L 16.03125 0 L 0.03125 0 z M 1.03125 1 L 15.03125 1 L 15.03125 15 L 1.03125 15 L 1.03125 1 z" transform="translate(31.97559,220.36218)"/><path style="opacity:.108;fill:#bebebe;fill-opacity:1;fill-rule:evenodd;stroke:none;stroke-width:1px;stroke-linecap:butt;stroke-linejoin:miter;stroke-opacity:1" id="path5266" d="M 3.0253906 1 L 3.0253906 3 L 1.0253906 3 L 1.0234375 3.9941406 L 1.0273438 4.0058594 L 3.0253906 4.0058594 L 3.0253906 6 L 1.0273438 6 L 1.0273438 7 L 3.0253906 7 L 3.0253906 9 L 1.0273438 9 L 1.0273438 10 L 3.0253906 10 L 3.0253906 12 L 1.0273438 12 L 1.0273438 13 L 3.0253906 13 L 3.0253906 15 L 4.0253906 15 L 4.0253906 13 L 6.0253906 13 L 6.0253906 15 L 7.0253906 15 L 7.0253906 13 L 9.0253906 13 L 9.0253906 15 L 10.025391 15 L 10.025391 13 L 12.025391 13 L 12.025391 15 L 13.025391 15 L 13.025391 13 L 15.027344 13 L 15.027344 12 L 13.025391 12 L 13.025391 10 L 15.027344 10 L 15.027344 9 L 13.025391 9 L 13.025391 7 L 15.027344 7 L 15.027344 6 L 13.025391 6 L 13.025391 4 L 15.025391 4 L 15.025391 3 L 13.025391 3 L 13.025391 1 L 12.025391 1 L 12.025391 3 L 10.025391 3 L 10.025391 1 L 9.0253906 1 L 9.0253906 3 L 7.0253906 3 L 7.0253906 1 L 6.0253906 1 L 6.0253906 3 L 4.0253906 3 L 4.0253906 1 L 3.0253906 1 z M 10.025391 4.0019531 L 12.025391 4.0019531 L 12.025391 6 L 10.025391 6 L 10.025391 4.0019531 z M 4.0253906 4.0039062 L 6.0253906 4.0039062 L 6.0253906 6 L 4.0253906 6 L 4.0253906 4.0039062 z M 7.0253906 4.0039062 L 9.0253906 4.0039062 L 9.0253906 6 L 7.0253906 6 L 7.0253906 4.0039062 z M 4.0253906 7 L 6.0253906 7 L 6.0253906 9 L 4.0253906 9 L 4.0253906 7 z M 7.0253906 7 L 9.0253906 7 L 9.0253906 9 L 7.0253906 9 L 7.0253906 7 z M 10.025391 7 L 12.025391 7 L 12.025391 9 L 10.025391 9 L 10.025391 7 z M 4.0253906 10 L 6.0253906 10 L 6.0253906 12 L 4.0253906 12 L 4.0253906 10 z M 7.0253906 10 L 9.0253906 10 L 9.0253906 12 L 7.0253906 12 L 7.0253906 10 z M 10.025391 10 L 12.025391 10 L 12.025391 12 L 10.025391 12 L 10.025391 10 z" transform="translate(31.97559,220.36218)"/><path style="color:#000;font-style:normal;font-variant:normal;font-weight:400;font-stretch:normal;font-size:medium;line-height:normal;font-family:sans-serif;text-indent:0;text-align:start;text-decoration:none;text-decoration-line:none;text-decoration-style:solid;text-decoration-color:#000;letter-spacing:normal;word-spacing:normal;text-transform:none;direction:ltr;block-progression:tb;writing-mode:lr-tb;baseline-shift:baseline;text-anchor:start;white-space:normal;clip-rule:nonzero;display:inline;overflow:visible;visibility:visible;opacity:1;isolation:auto;mix-blend-mode:normal;color-interpolation:sRGB;color-interpolation-filters:linearRGB;solid-color:#000;solid-opacity:1;fill:#bebebe;fill-opacity:1;fill-rule:evenodd;stroke:none;stroke-width:1px;stroke-linecap:round;stroke-linejoin:miter;stroke-miterlimit:4;stroke-dasharray:none;stroke-dashoffset:0;stroke-opacity:1;color-rendering:auto;image-rendering:auto;shape-rendering:auto;text-rendering:auto;enable-background:accumulate" id="path5913" d="m 45.982422,221.85547 a 0.50005,0.50005 0 0 0 -0.47461,0.41992 c -0.670445,3.76092 -2.151193,6.28601 -4.164062,8.07227 -2.012869,1.78626 -4.58527,2.83704 -7.460938,3.52929 a 0.50005,0.50005 0 1 0 0.234376,0.97071 c 2.967072,-0.71426 5.707261,-1.8144 7.890624,-3.75196 2.183364,-1.93756 3.78249,-4.7092 4.484376,-8.64648 a 0.50005,0.50005 0 0 0 -0.509766,-0.59375 z"/></g></svg>