<svg xmlns="http://www.w3.org/2000/svg" xmlns:svg="http://www.w3.org/2000/svg" id="svg2" width="16" height="16" version="1.1" viewBox="0 0 16 16"><defs id="defs4"><linearGradient id="linearGradient3946"><stop id="stop3948" offset="0" style="stop-color:#000;stop-opacity:.74698794"/><stop id="stop3950" offset="1" style="stop-color:#000;stop-opacity:.02409638"/></linearGradient><linearGradient id="linearGradient3830-9"><stop style="stop-color:#000;stop-opacity:.74698794" id="stop3832-7" offset="0"/><stop style="stop-color:#000;stop-opacity:.02409638" id="stop3834-5" offset="1"/></linearGradient><linearGradient id="linearGradient3984"><stop style="stop-color:#f4deba;stop-opacity:1" id="stop3986" offset="0"/><stop style="stop-color:#de9625;stop-opacity:0" id="stop3988" offset="1"/></linearGradient></defs><metadata id="metadata7"/><g id="layer1" transform="translate(-31.97559,-221.36218)"><g id="g4513" transform="translate(-0.82373684,1.8844644)"><path id="rect965" d="m 42.723641,222.79258 2.849138,2.84914 c 0.386003,0.386 0.386003,1.00751 7e-6,1.3935 l -0.727817,0.72782 c -0.385996,0.386 -1.0075,0.386 -1.393503,-1e-5 l -2.849138,-2.84914 c -0.386003,-0.386 -0.385996,-1.0075 0,-1.39349 l 0.727818,-0.72782 c 0.385995,-0.38599 1.007493,-0.386 1.393495,0 z" style="opacity:1;fill:#bebebe;fill-opacity:1;stroke:none;stroke-width:74.99999237;stroke-linecap:round;stroke-linejoin:round;stroke-miterlimit:4;stroke-dasharray:none;stroke-dashoffset:0;stroke-opacity:1"/><path id="rect967" d="m 45.972733,221.21311 1.179511,1.17951 c 0.391737,0.39174 0.391737,1.02248 -7e-6,1.41422 l -1.707154,1.70715 c -0.391737,0.39174 -1.022476,0.39174 -1.414214,0 l -1.17951,-1.17951 c -0.391737,-0.39173 -0.391737,-1.02247 0,-1.41421 l 1.707154,-1.70715 c 0.391744,-0.39175 1.022483,-0.39175 1.41422,-1e-5 z" style="opacity:1;fill:#bebebe;fill-opacity:1;stroke:none;stroke-width:74.99999237;stroke-linecap:round;stroke-linejoin:round;stroke-miterlimit:4;stroke-dasharray:none;stroke-dashoffset:0;stroke-opacity:1"/><g style="opacity:.65799997" id="g1014" transform="rotate(45,40.744507,227.85234)"><path id="rect969" d="m 39.32657,226.74786 2.3972,2e-5 -0.28795,8.82117 -1.93785,-0.0207 z" style="opacity:1;fill:#bebebe;fill-opacity:1;stroke:none;stroke-width:74.99999237;stroke-linecap:round;stroke-linejoin:round;stroke-miterlimit:4;stroke-dasharray:none;stroke-dashoffset:0;stroke-opacity:1"/><circle id="circle971" cx="40.457" cy="235.507" r=".974" style="opacity:1;fill:#bebebe;fill-opacity:1;stroke:none;stroke-width:74.99999237;stroke-linecap:round;stroke-linejoin:round;stroke-miterlimit:4;stroke-dasharray:none;stroke-dashoffset:0;stroke-opacity:1"/></g><path id="path1016" d="m 35.77869,231.00061 -1.226806,1.27624 a 0.97447307,0.97447307 0 0 0 -0.113526,0.0952 0.97447307,0.97447307 0 0 0 0,1.37878 0.97447307,0.97447307 0 0 0 1.333008,0.0421 l 0.0055,0.005 2.98645,-2.79785 z" style="opacity:1;fill:#bebebe;fill-opacity:1;stroke:none;stroke-width:74.99999237;stroke-linecap:round;stroke-linejoin:round;stroke-miterlimit:4;stroke-dasharray:none;stroke-dashoffset:0;stroke-opacity:1"/></g></g></svg>