<svg xmlns="http://www.w3.org/2000/svg" xmlns:svg="http://www.w3.org/2000/svg" id="svg2" width="16" height="16" version="1.1" viewBox="0 0 16 16"><defs id="defs4"><marker id="DiamondS" orient="auto" refX="0" refY="0" style="overflow:visible"><path id="path8477" d="M 0,-7.0710768 -7.0710894,0 0,7.0710589 7.0710462,0 Z" transform="scale(0.2)" style="fill-rule:evenodd;stroke:#000;stroke-width:1.00000003pt"/></marker><marker id="Arrow2Send" orient="auto" refX="0" refY="0" style="overflow:visible"><path id="path8425" d="M 8.7185878,4.0337352 -2.2072895,0.01601326 8.7185884,-4.0017078 c -1.7454984,2.3720609 -1.7354408,5.6174519 -6e-7,8.035443 z" transform="matrix(-0.3,0,0,-0.3,0.69,0)" style="fill-rule:evenodd;stroke-width:.625;stroke-linejoin:round"/></marker><marker id="Arrow1Lend" orient="auto" refX="0" refY="0" style="overflow:visible"><path id="path8395" d="M 0,0 5,-5 -12.5,0 5,5 Z" transform="matrix(-0.8,0,0,-0.8,-10,0)" style="fill-rule:evenodd;stroke:#000;stroke-width:1.00000003pt"/></marker><linearGradient id="linearGradient3946"><stop id="stop3948" offset="0" style="stop-color:#000;stop-opacity:.74698794"/><stop id="stop3950" offset="1" style="stop-color:#000;stop-opacity:.02409638"/></linearGradient><linearGradient id="linearGradient3830-9"><stop style="stop-color:#000;stop-opacity:.74698794" id="stop3832-7" offset="0"/><stop style="stop-color:#000;stop-opacity:.02409638" id="stop3834-5" offset="1"/></linearGradient><linearGradient id="linearGradient3984"><stop style="stop-color:#f4deba;stop-opacity:1" id="stop3986" offset="0"/><stop style="stop-color:#de9625;stop-opacity:0" id="stop3988" offset="1"/></linearGradient></defs><metadata id="metadata7"/><g id="layer1" transform="translate(-31.97559,-221.36218)"><path style="opacity:.75;fill:#bebebe;fill-opacity:1;stroke:none;stroke-width:1px;stroke-linecap:butt;stroke-linejoin:miter;stroke-opacity:1" id="path3797" d="m 33,228.09556 2,-5 h 1 l -2,5 z"/><path style="opacity:.75;fill:#bebebe;fill-opacity:1;stroke:none;stroke-width:1px;stroke-linecap:butt;stroke-linejoin:miter;stroke-opacity:1" id="path3799" d="m 47,228.09556 -2,-5 h -1 l 2,5 z"/><path style="opacity:.75;fill:#bebebe;fill-opacity:1;stroke:none" id="path3804" d="M 35.59375,224.10337 36,223.09556 h 8 l 0.398438,0.99219 z"/><path style="opacity:.15;fill:#bebebe;fill-opacity:1;stroke:none;stroke-width:1px;stroke-linecap:butt;stroke-linejoin:miter;stroke-opacity:1" id="path3806" d="m 35.599512,224.09682 v 4.02167 h -1.613087 z"/><path id="path3808" d="m 44.394153,224.09682 v 4.02167 h 1.613087 z" style="opacity:.15;fill:#bebebe;fill-opacity:1;stroke:none"/><path style="opacity:.25;fill:#bebebe;fill-opacity:1;stroke:none;stroke-width:1px;stroke-linecap:butt;stroke-linejoin:miter;stroke-opacity:1" id="path3810" d="M 35.99726,224.14102 44,224.09556 v 4 h -8 z"/><path style="fill:#bebebe;fill-opacity:1;stroke:none" id="path3812" d="m 33.00684,228.09554 v 7 h 14 v -7 z m 4,3 h 1 v 1 h 4 v -1 h 1 v 2 h -6 z"/></g></svg>