<svg xmlns="http://www.w3.org/2000/svg" xmlns:svg="http://www.w3.org/2000/svg" id="svg2" width="16" height="16" version="1.1"><defs id="defs4"><marker id="DiamondS" orient="auto" refX="0" refY="0" style="overflow:visible"><path id="path8477" d="M 0,-7.0710768 L -7.0710894,0 L 0,7.0710589 L 7.0710462,0 L 0,-7.0710768 z" transform="scale(0.2)" style="fill-rule:evenodd;stroke:#000;stroke-width:1pt"/></marker><marker id="Arrow2Send" orient="auto" refX="0" refY="0" style="overflow:visible"><path id="path8425" d="M 8.7185878,4.0337352 L -2.2072895,0.016013256 L 8.7185884,-4.0017078 C 6.9730900,-1.6296469 6.9831476,1.6157441 8.7185878,4.0337352 z" transform="scale(0.3) rotate(180) translate(-2.3,0)" style="fill-rule:evenodd;stroke-width:.625;stroke-linejoin:round"/></marker><marker id="Arrow1Lend" orient="auto" refX="0" refY="0" style="overflow:visible"><path id="path8395" d="M 0.0,0.0 L 5.0,-5.0 L -12.5,0.0 L 5.0,5.0 L 0.0,0.0 z" transform="scale(0.8) rotate(180) translate(12.5,0)" style="fill-rule:evenodd;stroke:#000;stroke-width:1pt"/></marker><linearGradient id="linearGradient3946"><stop id="stop3948" offset="0" style="stop-color:#000;stop-opacity:.74698794"/><stop id="stop3950" offset="1" style="stop-color:#000;stop-opacity:.02409638"/></linearGradient><linearGradient id="linearGradient3830-9"><stop style="stop-color:#000;stop-opacity:.74698794" id="stop3832-7" offset="0"/><stop style="stop-color:#000;stop-opacity:.02409638" id="stop3834-5" offset="1"/></linearGradient><linearGradient id="linearGradient3984"><stop style="stop-color:#f4deba;stop-opacity:1" id="stop3986" offset="0"/><stop style="stop-color:#de9625;stop-opacity:0" id="stop3988" offset="1"/></linearGradient></defs><metadata id="metadata7"/><g id="layer1" transform="translate(-31.97559,-220.36218)"><path style="fill:#bebebe;fill-opacity:1;stroke:none" id="path3019" d="m 2.02441,2.00002 0,12 12,0 0,-6 c -0.352802,0.9172845 -0.005,1.4333525 -0.99316,2.06248 -0.466901,-0.4542647 -0.852781,-1.0792425 -1,-2.0625 l -1,0 c -0.3125,1.28125 -0.176451,2.56109 -1,3.96875 l -2,0 c -2,-3 -2,-5 -3,-8 C 4.7146226,4.9186321 4.187259,5.9074151 3.65625,6.875 2.6155263,4.5711187 3.3600617,2.4433741 3.02441,2.00002 z" transform="translate(31.97559,220.36218)"/><path style="fill:#bebebe;fill-opacity:1;stroke:none" id="path3789" d="M 0.03125 0 L 0.03125 16 L 16.03125 16 L 16.03125 0 L 0.03125 0 z M 1.03125 1 L 15.03125 1 L 15.03125 15 L 1.03125 15 L 1.03125 1 z" transform="translate(31.97559,220.36218)"/></g></svg>