<svg xmlns="http://www.w3.org/2000/svg" xmlns:svg="http://www.w3.org/2000/svg" id="svg2" width="16" height="16" version="1.1"><defs id="defs4"><linearGradient id="linearGradient3946"><stop id="stop3948" offset="0" style="stop-color:#000;stop-opacity:.74698794"/><stop id="stop3950" offset="1" style="stop-color:#000;stop-opacity:.02409638"/></linearGradient><linearGradient id="linearGradient3830-9"><stop style="stop-color:#000;stop-opacity:.74698794" id="stop3832-7" offset="0"/><stop style="stop-color:#000;stop-opacity:.02409638" id="stop3834-5" offset="1"/></linearGradient><linearGradient id="linearGradient3984"><stop style="stop-color:#f4deba;stop-opacity:1" id="stop3986" offset="0"/><stop style="stop-color:#de9625;stop-opacity:0" id="stop3988" offset="1"/></linearGradient></defs><metadata id="metadata7"/><g id="layer1" transform="translate(-31.97559,-220.36218)"><path id="path3866" d="m 8.0244098,6.00002 a 3,3 0 1 1 -6,0 3,3 0 1 1 6,0 z" transform="matrix(0.49737385,-0.91547058,0.91547058,0.49737385,35.89359,232.91345)" style="opacity:.25;fill:#bebebe;fill-opacity:1;stroke:none"/><path style="opacity:.5;fill:#bebebe;fill-opacity:1;stroke:none" id="path3864" d="m 8.0244098,6.00002 a 3,3 0 1 1 -6,0 3,3 0 1 1 6,0 z" transform="matrix(0.49737385,-0.91547058,0.91547058,0.49737385,28.176238,232.91607)"/><path style="opacity:.75;fill:#bebebe;fill-opacity:1;stroke:none" id="path3868" d="m 8.0244098,6.00002 a 3,3 0 1 1 -6,0 3,3 0 1 1 6,0 z" transform="matrix(0.49737385,-0.91547058,0.91547058,0.49737385,32.094699,226.09141)"/></g></svg>