<svg xmlns="http://www.w3.org/2000/svg" xmlns:svg="http://www.w3.org/2000/svg" id="svg2" width="16" height="16" version="1.1"><defs id="defs4"><linearGradient id="linearGradient3946"><stop id="stop3948" offset="0" style="stop-color:#000;stop-opacity:.74698794"/><stop id="stop3950" offset="1" style="stop-color:#000;stop-opacity:.02409638"/></linearGradient><linearGradient id="linearGradient3830-9"><stop style="stop-color:#000;stop-opacity:.74698794" id="stop3832-7" offset="0"/><stop style="stop-color:#000;stop-opacity:.02409638" id="stop3834-5" offset="1"/></linearGradient><linearGradient id="linearGradient3984"><stop style="stop-color:#f4deba;stop-opacity:1" id="stop3986" offset="0"/><stop style="stop-color:#de9625;stop-opacity:0" id="stop3988" offset="1"/></linearGradient></defs><metadata id="metadata7"/><g id="layer1" transform="translate(-31.97559,-220.36218)"><path style="fill:#bebebe;fill-opacity:1;stroke:none" id="path5813" d="m 37,223.3622 0,10 -5,0 4,-10 z"/><path id="path6583" d="m 42,223.3622 0,10 5,0 -4,-10 z" style="fill:#bebebe;fill-opacity:1;stroke:none"/><path style="fill:#bebebe;fill-opacity:1;stroke:none" id="rect7190" d="m 7.0244098,1.00002 1,0 0,2 -1,0 z" transform="translate(31.97559,220.36218)"/><path style="fill:#bebebe;fill-opacity:1;stroke:none" id="rect7700" d="m 7.0244098,4.00002 1,0 0,2 -1,0 z" transform="translate(31.97559,220.36218)"/><path style="fill:#bebebe;fill-opacity:1;stroke:none" id="rect7702" d="m 7.0244098,7.00002 1,0 0,2 -1,0 z" transform="translate(31.97559,220.36218)"/><path style="fill:#bebebe;fill-opacity:1;stroke:none" id="rect7704" d="m 7.0244098,10.00002 1,0 0,2 -1,0 z" transform="translate(31.97559,220.36218)"/><path style="fill:#bebebe;fill-opacity:1;stroke:none" id="rect7706" d="m 7.0244098,13.00002 1,0 0,2 -1,0 z" transform="translate(31.97559,220.36218)"/></g></svg>