<svg xmlns="http://www.w3.org/2000/svg" xmlns:svg="http://www.w3.org/2000/svg" id="svg2" width="16" height="16" version="1.1"><defs id="defs4"><linearGradient id="linearGradient3946"><stop id="stop3948" offset="0" style="stop-color:#000;stop-opacity:.74698794"/><stop id="stop3950" offset="1" style="stop-color:#000;stop-opacity:.02409638"/></linearGradient><linearGradient id="linearGradient3830-9"><stop style="stop-color:#000;stop-opacity:.74698794" id="stop3832-7" offset="0"/><stop style="stop-color:#000;stop-opacity:.02409638" id="stop3834-5" offset="1"/></linearGradient><linearGradient id="linearGradient3984"><stop style="stop-color:#f4deba;stop-opacity:1" id="stop3986" offset="0"/><stop style="stop-color:#de9625;stop-opacity:0" id="stop3988" offset="1"/></linearGradient></defs><metadata id="metadata7"/><g id="layer1" transform="translate(-31.97559,-220.36218)"><path style="font-size:medium;font-style:normal;font-variant:normal;font-weight:400;font-stretch:normal;text-indent:0;text-align:start;text-decoration:none;line-height:normal;letter-spacing:normal;word-spacing:normal;text-transform:none;direction:ltr;block-progression:tb;writing-mode:lr-tb;text-anchor:start;baseline-shift:baseline;color:#000;fill:#bebebe;fill-opacity:1;stroke:none;stroke-width:2;marker:none;visibility:visible;display:inline;overflow:visible;enable-background:accumulate;font-family:Sans;-inkscape-font-specification:Sans" id="path10939" d="m 39.22559,223.75235 c -2.650753,0.31192 -4.9616,2.1738 -6.625,4.59375 l 0.8125,0.5625 c 1.552811,-2.25906 3.651407,-3.89092 5.90625,-4.15625 2.254843,-0.26533 4.76773,0.78445 7.28125,4.1875 l 0.8125,-0.625 c -2.647887,-3.58496 -5.536748,-4.87442 -8.1875,-4.5625 z"/><path style="opacity:.4;fill:#bebebe;fill-opacity:1;stroke:none" id="path4617" d="m 43.268686,228.29656 c 0,1.76358 -1.429663,3.19324 -3.193242,3.19324 -1.763579,0 -3.193243,-1.42966 -3.193243,-3.19324 0,-1.76357 1.429664,-3.19323 3.193243,-3.19323 1.763579,0 3.193242,1.42966 3.193242,3.19323 z"/><path style="font-size:medium;font-style:normal;font-variant:normal;font-weight:400;font-stretch:normal;text-indent:0;text-align:start;text-decoration:none;line-height:normal;letter-spacing:normal;word-spacing:normal;text-transform:none;direction:ltr;block-progression:tb;writing-mode:lr-tb;text-anchor:start;baseline-shift:baseline;color:#000;fill:#bebebe;fill-opacity:1;stroke:none;stroke-width:1px;marker:none;visibility:visible;display:inline;overflow:visible;enable-background:accumulate;font-family:Sans;-inkscape-font-specification:Sans" id="path5139" d="m 33.40625,227.70267 -0.8125,0.59375 c 2.647888,3.58496 5.536747,4.90567 8.1875,4.59375 2.650753,-0.31192 4.961599,-2.1738 6.625,-4.59375 l -0.8125,-0.5625 c -1.552811,2.25906 -3.682658,3.89092 -5.9375,4.15625 -2.254842,0.26533 -4.73648,-0.78445 -7.25,-4.1875 z"/></g></svg>