<svg xmlns="http://www.w3.org/2000/svg" xmlns:svg="http://www.w3.org/2000/svg" xmlns:xlink="http://www.w3.org/1999/xlink" id="svg2" width="16" height="16" version="1.1"><defs id="defs4"><linearGradient id="linearGradient4490"><stop style="stop-color:#bebebe;stop-opacity:1" id="stop4492" offset="0"/><stop style="stop-color:#bebebe;stop-opacity:0" id="stop4494" offset="1"/></linearGradient><linearGradient id="linearGradient3946"><stop id="stop3948" offset="0" style="stop-color:#000;stop-opacity:.74698794"/><stop id="stop3950" offset="1" style="stop-color:#000;stop-opacity:.02409638"/></linearGradient><linearGradient id="linearGradient3830-9"><stop style="stop-color:#000;stop-opacity:.74698794" id="stop3832-7" offset="0"/><stop style="stop-color:#000;stop-opacity:.02409638" id="stop3834-5" offset="1"/></linearGradient><linearGradient id="linearGradient3984"><stop style="stop-color:#f4deba;stop-opacity:1" id="stop3986" offset="0"/><stop style="stop-color:#de9625;stop-opacity:0" id="stop3988" offset="1"/></linearGradient><linearGradient id="linearGradient4496" x1="2.024" x2="14.024" y1="8" y2="8" gradientUnits="userSpaceOnUse" xlink:href="#linearGradient4490"/></defs><metadata id="metadata7"/><g id="layer1" transform="translate(-31.97559,-220.36218)"><path id="path4509" d="m 36,222.36526 0,11.99131 -1,0 0,-11.99131" style="opacity:.82999998;fill:#bebebe;fill-opacity:1;stroke:none"/><path style="opacity:.73999999;fill:#bebebe;fill-opacity:1;stroke:none" id="path4511" d="m 37,222.36526 0,11.99131 -1,0 0,-11.99131"/><path id="path4513" d="m 37,222.36526 1,0 0,11.99131 -1,0" style="opacity:.65;fill:#bebebe;fill-opacity:1;stroke:none"/><path style="opacity:.56999966;fill:#bebebe;fill-opacity:1;stroke:none" id="path4515" d="m 38,222.36526 1,0 0,11.99131 -1,0"/><path id="path4517" d="m 39,222.36526 1,0 0,11.99131 -1,0" style="opacity:.49000005;fill:#bebebe;fill-opacity:1;stroke:none"/><path style="opacity:.4;fill:#bebebe;fill-opacity:1;stroke:none" id="path4519" d="m 40,222.36526 1,0 0,11.99131 -1,0"/><path id="path4521" d="m 41,222.36526 1,0 0,11.99131 -1,0" style="opacity:.32000002;fill:#bebebe;fill-opacity:1;stroke:none"/><path style="opacity:.23999999;fill:#bebebe;fill-opacity:1;stroke:none" id="path4523" d="m 42,222.36526 1,0 0,11.99131 -1,0"/><path id="path4525" d="m 43,222.36526 1,0 0,11.99131 -1,0" style="opacity:.16000001;fill:#bebebe;fill-opacity:1;stroke:none"/><path style="opacity:.07000002;fill:#bebebe;fill-opacity:1;stroke:none" id="path4527" d="m 44,222.36526 1,0 0,11.99131 -1.000004,0"/><path style="opacity:.93999999;fill:#bebebe;fill-opacity:1;stroke:none" id="path5551" d="m 35.003906,222.3622 0,11.99437 -1,0 0,-11.99437"/><path style="color:#000;font-style:normal;font-variant:normal;font-weight:400;font-stretch:normal;font-size:medium;line-height:normal;font-family:sans-serif;text-indent:0;text-align:start;text-decoration:none;text-decoration-line:none;text-decoration-style:solid;text-decoration-color:#000;letter-spacing:normal;word-spacing:normal;text-transform:none;direction:ltr;block-progression:tb;writing-mode:lr-tb;baseline-shift:baseline;text-anchor:start;white-space:normal;clip-rule:nonzero;display:inline;overflow:visible;visibility:visible;opacity:.7;isolation:auto;mix-blend-mode:normal;color-interpolation:sRGB;color-interpolation-filters:linearRGB;solid-color:#000;solid-opacity:1;fill:#bebebe;fill-opacity:1;fill-rule:nonzero;stroke:none;stroke-width:1;stroke-linecap:round;stroke-linejoin:miter;stroke-miterlimit:4;stroke-dasharray:none;stroke-dashoffset:0;stroke-opacity:1;color-rendering:auto;image-rendering:auto;shape-rendering:auto;text-rendering:auto;enable-background:accumulate" id="rect5553" d="m 32.003906,220.36523 0,0.5 0,15.4961 15.996094,0 0,-15.9961 -15.996094,0 z m 1,1 13.996094,0 0,13.9961 -13.996094,0 0,-13.9961 z"/></g></svg>