<svg xmlns="http://www.w3.org/2000/svg" xmlns:svg="http://www.w3.org/2000/svg" id="svg2" width="16" height="16" version="1.1"><defs id="defs4"><marker id="DiamondS" orient="auto" refX="0" refY="0" style="overflow:visible"><path id="path8477" d="M 0,-7.0710768 L -7.0710894,0 L 0,7.0710589 L 7.0710462,0 L 0,-7.0710768 z" transform="scale(0.2)" style="fill-rule:evenodd;stroke:#000;stroke-width:1pt"/></marker><marker id="Arrow2Send" orient="auto" refX="0" refY="0" style="overflow:visible"><path id="path8425" d="M 8.7185878,4.0337352 L -2.2072895,0.016013256 L 8.7185884,-4.0017078 C 6.9730900,-1.6296469 6.9831476,1.6157441 8.7185878,4.0337352 z" transform="scale(0.3) rotate(180) translate(-2.3,0)" style="fill-rule:evenodd;stroke-width:.625;stroke-linejoin:round"/></marker><marker id="Arrow1Lend" orient="auto" refX="0" refY="0" style="overflow:visible"><path id="path8395" d="M 0.0,0.0 L 5.0,-5.0 L -12.5,0.0 L 5.0,5.0 L 0.0,0.0 z" transform="scale(0.8) rotate(180) translate(12.5,0)" style="fill-rule:evenodd;stroke:#000;stroke-width:1pt"/></marker><linearGradient id="linearGradient3946"><stop id="stop3948" offset="0" style="stop-color:#000;stop-opacity:.74698794"/><stop id="stop3950" offset="1" style="stop-color:#000;stop-opacity:.02409638"/></linearGradient><linearGradient id="linearGradient3830-9"><stop style="stop-color:#000;stop-opacity:.74698794" id="stop3832-7" offset="0"/><stop style="stop-color:#000;stop-opacity:.02409638" id="stop3834-5" offset="1"/></linearGradient><linearGradient id="linearGradient3984"><stop style="stop-color:#f4deba;stop-opacity:1" id="stop3986" offset="0"/><stop style="stop-color:#de9625;stop-opacity:0" id="stop3988" offset="1"/></linearGradient></defs><metadata id="metadata7"/><g id="layer1" transform="translate(-31.97559,-220.36218)"><path style="font-size:medium;font-style:normal;font-variant:normal;font-weight:400;font-stretch:normal;text-indent:0;text-align:start;text-decoration:none;line-height:normal;letter-spacing:normal;word-spacing:normal;text-transform:none;direction:ltr;block-progression:tb;writing-mode:lr-tb;text-anchor:start;baseline-shift:baseline;color:#000;fill:#bebebe;fill-opacity:1;stroke:none;stroke-width:1;marker:none;visibility:visible;display:inline;overflow:visible;enable-background:accumulate;font-family:Sans;-inkscape-font-specification:Sans" id="path3905" d="m 40.00684,220.86218 c -4.136213,0 -7.5,3.36379 -7.5,7.5 0,4.13621 3.363787,7.5 7.5,7.5 4.136213,0 7.5,-3.36379 7.5,-7.5 0,-4.13621 -3.363787,-7.5 -7.5,-7.5 z m 0,1 c 3.595773,0 6.5,2.90423 6.5,6.5 0,3.59577 -2.904227,6.5 -6.5,6.5 -3.595773,0 -6.5,-2.90423 -6.5,-6.5 0,-3.59577 2.904227,-6.5 6.5,-6.5 z"/><path style="fill:#bebebe;fill-opacity:1;stroke:none" id="path3895" d="M 15.03125 1 L 6.03125 6 L 7.3125 7.28125 C 7.4934644 7.1002856 7.7551076 7 8.03125 7 C 8.5835347 7 9.03125 7.4477153 9.03125 8 C 9.03125 8.2672084 8.8894937 8.5081113 8.71875 8.6875 C 8.7130412 8.6934978 8.7246047 8.7128953 8.71875 8.71875 L 10.03125 10 L 15.03125 1 z" transform="translate(31.97559,220.36218)"/><path style="opacity:.5;fill:#bebebe;fill-opacity:1;stroke:none" id="path3897" d="M 6.03125 6 L 1.03125 15 L 10.03125 10 L 8.71875 8.71875 C 8.5377856 8.8997144 8.3073924 9 8.03125 9 C 7.4789653 9 7.03125 8.5522847 7.03125 8 C 7.03125 7.7238576 7.1315356 7.4622144 7.3125 7.28125 L 6.03125 6 z" transform="translate(31.97559,220.36218)"/></g></svg>