<svg xmlns="http://www.w3.org/2000/svg" xmlns:svg="http://www.w3.org/2000/svg" id="svg2" width="16" height="16" version="1.1"><defs id="defs4"><linearGradient id="linearGradient3946"><stop id="stop3948" offset="0" style="stop-color:#000;stop-opacity:.74698794"/><stop id="stop3950" offset="1" style="stop-color:#000;stop-opacity:.02409638"/></linearGradient><linearGradient id="linearGradient3830-9"><stop style="stop-color:#000;stop-opacity:.74698794" id="stop3832-7" offset="0"/><stop style="stop-color:#000;stop-opacity:.02409638" id="stop3834-5" offset="1"/></linearGradient><linearGradient id="linearGradient3984"><stop style="stop-color:#f4deba;stop-opacity:1" id="stop3986" offset="0"/><stop style="stop-color:#de9625;stop-opacity:0" id="stop3988" offset="1"/></linearGradient></defs><metadata id="metadata7"/><g id="layer1" transform="translate(-31.97559,-220.36218)"><path style="color:#000;font-style:normal;font-variant:normal;font-weight:400;font-stretch:normal;font-size:medium;line-height:normal;font-family:sans-serif;font-variant-ligatures:normal;font-variant-position:normal;font-variant-caps:normal;font-variant-numeric:normal;font-variant-alternates:normal;font-feature-settings:normal;text-indent:0;text-align:start;text-decoration:none;text-decoration-line:none;text-decoration-style:solid;text-decoration-color:#000;letter-spacing:normal;word-spacing:normal;text-transform:none;writing-mode:lr-tb;direction:ltr;text-orientation:mixed;dominant-baseline:auto;baseline-shift:baseline;text-anchor:start;white-space:normal;shape-padding:0;clip-rule:nonzero;display:inline;overflow:visible;visibility:visible;opacity:1;isolation:auto;mix-blend-mode:normal;color-interpolation:sRGB;color-interpolation-filters:linearRGB;solid-color:#000;solid-opacity:1;vector-effect:none;fill:#bebebe;fill-opacity:1;fill-rule:evenodd;stroke:none;stroke-width:60.00000381;stroke-linecap:round;stroke-linejoin:round;stroke-miterlimit:4;stroke-dasharray:none;stroke-dashoffset:0;stroke-opacity:1;color-rendering:auto;image-rendering:auto;shape-rendering:auto;text-rendering:auto;enable-background:accumulate" id="path5443" d="m 41.835021,220.4248 a 3.451007,2.8954786 30.002343 0 0 -2.317877,1.24128 l -0.02613,-0.0158 c -0.0327,0.0857 -0.06734,0.17114 -0.10289,0.25658 a 3.451007,2.8954786 30.002343 0 0 -0.0947,0.21971 c -0.557638,1.25086 -1.423767,2.47773 -2.617026,3.65271 a 4.3434502,3.6442597 30.002343 0 0 -1.596466,1.29068 4.3434502,3.6442597 30.002343 0 0 -0.09852,0.17312 c -0.04694,0.0359 -0.09362,0.0717 -0.141238,0.1075 l 0.06875,0.042 a 4.3434502,3.6442597 30.002343 0 0 1.390788,4.6384 l -2.021325,3.2275 a 0.67569001,0.67569001 0 1 0 1.145171,0.71719 l 2.027747,-3.23774 a 4.3434502,3.6442597 30.002343 0 0 5.038394,-1.1362 4.3434502,3.6442597 30.002343 0 0 0.442146,-2.13257 c 0.529497,-1.44809 1.190975,-2.61789 1.946945,-3.60983 a 3.451007,2.8954786 30.002343 0 0 0.525543,-0.59249 3.451007,2.8954786 30.002343 0 0 -1.406447,-4.25474 3.451007,2.8954786 30.002343 0 0 -2.162872,-0.58731 z"/></g></svg>