<svg xmlns="http://www.w3.org/2000/svg" xmlns:svg="http://www.w3.org/2000/svg" id="svg2" width="16" height="16" version="1.1"><defs id="defs4"><linearGradient id="linearGradient3946"><stop id="stop3948" offset="0" style="stop-color:#000;stop-opacity:.74698794"/><stop id="stop3950" offset="1" style="stop-color:#000;stop-opacity:.02409638"/></linearGradient><linearGradient id="linearGradient3830-9"><stop style="stop-color:#000;stop-opacity:.74698794" id="stop3832-7" offset="0"/><stop style="stop-color:#000;stop-opacity:.02409638" id="stop3834-5" offset="1"/></linearGradient><linearGradient id="linearGradient3984"><stop style="stop-color:#f4deba;stop-opacity:1" id="stop3986" offset="0"/><stop style="stop-color:#de9625;stop-opacity:0" id="stop3988" offset="1"/></linearGradient></defs><metadata id="metadata7"/><g id="layer1" transform="translate(-31.97559,-220.36218)"><path style="opacity:1;fill:#bebebe;fill-opacity:1;stroke:none;stroke-width:2;stroke-linecap:round;stroke-linejoin:miter;stroke-miterlimit:4;stroke-dasharray:none;stroke-dashoffset:0;stroke-opacity:1" id="path4157" d="m 37.988739,228.53897 -2.297797,-2.35131 -2.888395,1.48949 1.526172,-2.91193 -2.309155,-2.28675 3.241023,0.55164 1.461259,-2.90278 0.476891,3.25286 3.212262,0.49274 -2.946288,1.45874 z" transform="matrix(0.64913853,-0.86150281,0.86150281,0.64913853,-179.99636,110.92512)"/><path id="path4167" d="m 37.988739,228.53897 -2.297797,-2.35131 -2.888395,1.48949 1.526172,-2.91193 -2.309155,-2.28675 3.241023,0.55164 1.461259,-2.90278 0.476891,3.25286 3.212262,0.49274 -2.946288,1.45874 z" transform="matrix(0.17246664,-0.59507374,0.59507374,0.17246664,-97.308777,206.28836)" style="opacity:1;fill:#bebebe;fill-opacity:.74840766;stroke:none;stroke-width:2;stroke-linecap:round;stroke-linejoin:miter;stroke-miterlimit:4;stroke-dasharray:none;stroke-dashoffset:0;stroke-opacity:1"/><path style="opacity:1;fill:#bebebe;fill-opacity:.69745225;stroke:none;stroke-width:2;stroke-linecap:round;stroke-linejoin:miter;stroke-miterlimit:4;stroke-dasharray:none;stroke-dashoffset:0;stroke-opacity:1" id="path4169" d="m 37.988739,228.53897 -2.297797,-2.35131 -2.888395,1.48949 1.526172,-2.91193 -2.309155,-2.28675 3.241023,0.55164 1.461259,-2.90278 0.476891,3.25286 3.212262,0.49274 -2.946288,1.45874 z" transform="matrix(0.31512729,-0.24426588,0.24426588,0.31512729,-20.343182,164.16536)"/><path style="color:#000;font-style:normal;font-variant:normal;font-weight:400;font-stretch:normal;font-size:medium;line-height:normal;font-family:sans-serif;text-indent:0;text-align:start;text-decoration:none;text-decoration-line:none;text-decoration-style:solid;text-decoration-color:#000;letter-spacing:normal;word-spacing:normal;text-transform:none;direction:ltr;block-progression:tb;writing-mode:lr-tb;baseline-shift:baseline;text-anchor:start;white-space:normal;clip-rule:nonzero;display:inline;overflow:visible;visibility:visible;opacity:1;isolation:auto;mix-blend-mode:normal;color-interpolation:sRGB;color-interpolation-filters:linearRGB;solid-color:#000;solid-opacity:1;fill:#bebebe;fill-opacity:1;fill-rule:evenodd;stroke:none;stroke-width:1px;stroke-linecap:round;stroke-linejoin:miter;stroke-miterlimit:4;stroke-dasharray:none;stroke-dashoffset:0;stroke-opacity:1;color-rendering:auto;image-rendering:auto;shape-rendering:auto;text-rendering:auto;enable-background:accumulate" id="path4171" d="m 39.751212,228.25156 c -0.449408,9e-5 -0.670595,0.54685 -0.347656,0.85938 l 6.011567,6.18638 c 0.471254,0.49084 1.197872,-0.23577 0.707032,-0.70703 l -6.011568,-6.18639 c -0.09421,-0.0974 -0.223892,-0.15234 -0.359375,-0.15234 z"/></g></svg>