<svg xmlns="http://www.w3.org/2000/svg" xmlns:svg="http://www.w3.org/2000/svg" id="svg7384" width="16" height="16" version="1.1"><metadata id="metadata90"/><title id="title9167">Gnome Symbolic Icon Theme</title><g id="layer12" transform="translate(-81.00015,-687)" style="display:inline"><path id="path3613-6-6-9" d="m 89.50018,695.49997 1,-10e-6 c 0.26531,-3e-5 0.53058,-0.0931 0.71876,-0.28124 l 2.99999,-3.00001 0.28126,-0.28125 0,-0.87499 -0.28126,-0.28126 -3,-2.99999 c -0.18818,-0.18821 -0.45347,-0.28121 -0.71876,-0.28121 l -1,-10e-6 0,1 c -4e-5,0.26531 0.0931,0.53059 0.28121,0.71877 l 2.28126,2.28124 -2.28125,2.28125 c -0.18815,0.18817 -0.28125,0.45345 -0.28125,0.71875 l 0,1 z" style="font-size:medium;font-style:normal;font-variant:normal;font-weight:400;font-stretch:normal;text-indent:0;text-align:start;text-decoration:none;line-height:normal;letter-spacing:normal;word-spacing:normal;text-transform:none;direction:ltr;block-progression:tb;writing-mode:lr-tb;text-anchor:start;color:#000;fill:#bebebe;fill-opacity:1;stroke:none;stroke-width:2;marker:none;visibility:visible;display:inline;overflow:visible;enable-background:accumulate;font-family:Bitstream Vera Sans;-inkscape-font-specification:Bitstream Vera Sans"/><path id="path35770-1" d="m 92.50019,690.49981 -7,0 0,2 7,0 0,-2 z" style="font-size:medium;font-style:normal;font-variant:normal;font-weight:400;font-stretch:normal;text-indent:0;text-align:start;text-decoration:none;line-height:normal;letter-spacing:normal;word-spacing:normal;text-transform:none;direction:ltr;block-progression:tb;writing-mode:lr-tb;text-anchor:start;baseline-shift:baseline;color:#000;fill:#bebebe;fill-opacity:1;stroke:none;stroke-width:2;marker:none;visibility:visible;display:inline;overflow:visible;enable-background:accumulate;font-family:Sans;-inkscape-font-specification:Sans"/><path id="path3613-6-6-9-5" d="m 88.5002,701.49997 -1,-10e-6 c -0.26531,-3e-5 -0.53058,-0.0931 -0.71876,-0.28124 l -2.99999,-3.00001 -0.28126,-0.28125 0,-0.87499 0.28126,-0.28126 3,-2.99999 c 0.18818,-0.18821 0.45347,-0.28121 0.71876,-0.28121 l 1,-10e-6 0,1 c 4e-5,0.26531 -0.0931,0.53059 -0.28121,0.71877 l -2.28126,2.28124 2.28125,2.28125 c 0.18815,0.18817 0.28125,0.45345 0.28125,0.71875 l 0,1 z" style="font-size:medium;font-style:normal;font-variant:normal;font-weight:400;font-stretch:normal;text-indent:0;text-align:start;text-decoration:none;line-height:normal;letter-spacing:normal;word-spacing:normal;text-transform:none;direction:ltr;block-progression:tb;writing-mode:lr-tb;text-anchor:start;color:#000;fill:#bebebe;fill-opacity:1;stroke:none;stroke-width:2;marker:none;visibility:visible;display:inline;overflow:visible;enable-background:accumulate;font-family:Bitstream Vera Sans;-inkscape-font-specification:Bitstream Vera Sans"/><path id="path35770-1-5" d="m 92.50019,696.49981 -7,0 0,2 7,0 0,-2 z" style="font-size:medium;font-style:normal;font-variant:normal;font-weight:400;font-stretch:normal;text-indent:0;text-align:start;text-decoration:none;line-height:normal;letter-spacing:normal;word-spacing:normal;text-transform:none;direction:ltr;block-progression:tb;writing-mode:lr-tb;text-anchor:start;baseline-shift:baseline;color:#000;fill:#bebebe;fill-opacity:1;stroke:none;stroke-width:2;marker:none;visibility:visible;display:inline;overflow:visible;enable-background:accumulate;font-family:Sans;-inkscape-font-specification:Sans"/></g></svg>