<svg xmlns="http://www.w3.org/2000/svg" xmlns:svg="http://www.w3.org/2000/svg" id="svg2" width="16" height="16" version="1.1"><defs id="defs4"><linearGradient id="linearGradient3946"><stop id="stop3948" offset="0" style="stop-color:#000;stop-opacity:.74698794"/><stop id="stop3950" offset="1" style="stop-color:#000;stop-opacity:.02409638"/></linearGradient><linearGradient id="linearGradient3830-9"><stop style="stop-color:#000;stop-opacity:.74698794" id="stop3832-7" offset="0"/><stop style="stop-color:#000;stop-opacity:.02409638" id="stop3834-5" offset="1"/></linearGradient><linearGradient id="linearGradient3984"><stop style="stop-color:#f4deba;stop-opacity:1" id="stop3986" offset="0"/><stop style="stop-color:#de9625;stop-opacity:0" id="stop3988" offset="1"/></linearGradient></defs><metadata id="metadata7"/><g id="layer1" transform="translate(-31.97559,-220.36218)"><path style="fill:#bebebe;fill-opacity:1;stroke:none" id="rect3832" d="M 1.03125 1 L 1.03125 15 L 15.03125 15 L 15.03125 1 L 1.03125 1 z M 3.03125 3 L 7.03125 3 L 7.03125 5 L 5.03125 5 L 5.03125 7 L 3.03125 7 L 3.03125 3 z M 9.03125 3 L 13.03125 3 L 13.03125 7 L 11.03125 7 L 11.03125 5 L 9.03125 5 L 9.03125 3 z M 3.03125 9 L 5.03125 9 L 5.03125 11 L 7.03125 11 L 7.03125 13 L 3.03125 13 L 3.03125 9 z M 11.03125 9 L 13.03125 9 L 13.03125 13 L 9.03125 13 L 9.03125 11 L 11.03125 11 L 11.03125 9 z" transform="translate(31.97559,220.36218)"/></g></svg>